<?xml version="1.0" encoding="UTF-8"?>
<!DOCTYPE svg PUBLIC "-//W3C//DTD SVG 1.1//EN" "http://www.w3.org/Graphics/SVG/1.1/DTD/svg11.dtd">
<svg xmlns="http://www.w3.org/2000/svg" version="1.1" width="512px" height="512px" style="shape-rendering:geometricPrecision; text-rendering:geometricPrecision; image-rendering:optimizeQuality; fill-rule:evenodd; clip-rule:evenodd" xmlns:xlink="http://www.w3.org/1999/xlink">
<g><path style="opacity:0.967" fill="#020100" d="M 67.5,-0.5 C 70.1667,-0.5 72.8333,-0.5 75.5,-0.5C 116.429,16.3245 159.096,26.4912 203.5,30C 272.405,36.6193 340.072,30.2859 406.5,11C 416.795,7.62909 426.795,3.79576 436.5,-0.5C 439.167,-0.5 441.833,-0.5 444.5,-0.5C 449.245,4.33474 449.745,9.66807 446,15.5C 438.689,30.6378 429.523,44.4711 418.5,57C 439.682,91.2091 452.515,128.376 457,168.5C 461.325,207.24 452.825,242.74 431.5,275C 435.084,283.336 438.25,291.836 441,300.5C 441.667,303.167 441.667,305.833 441,308.5C 440.208,310.644 438.708,311.977 436.5,312.5C 433.138,312.93 430.305,311.93 428,309.5C 425.58,301.903 422.58,294.569 419,287.5C 410.387,295.455 401.22,302.621 391.5,309C 399.725,334.991 401.725,361.491 397.5,388.5C 396.021,395.443 394.021,402.276 391.5,409C 415.977,402.645 429.977,386.479 433.5,360.5C 434.418,350.514 434.584,340.514 434,330.5C 435.432,328.561 437.265,327.228 439.5,326.5C 443.683,325.846 446.516,327.512 448,331.5C 452.836,356.551 448.169,379.551 434,400.5C 420.294,416.106 403.127,425.606 382.5,429C 373.959,440.541 363.793,450.375 352,458.5C 353.664,462.147 355.664,465.813 358,469.5C 361.204,477.559 362.204,485.893 361,494.5C 359.02,499.906 355.186,501.739 349.5,500C 348.333,498.833 347.167,497.667 346,496.5C 347.382,484.649 343.882,474.649 335.5,466.5C 333.668,467.248 332.001,468.248 330.5,469.5C 338.237,479.545 341.403,490.878 340,503.5C 333.994,509.33 328.994,508.663 325,501.5C 324.716,491.933 321.382,483.6 315,476.5C 316.744,482.451 317.911,488.617 318.5,495C 318.179,499.272 317.346,503.438 316,507.5C 315.31,509.35 314.144,510.684 312.5,511.5C 309.833,511.5 307.167,511.5 304.5,511.5C 302.261,509.523 300.927,507.023 300.5,504C 303.46,494.986 302.293,486.486 297,478.5C 296.107,477.919 295.107,477.585 294,477.5C 267.827,481.265 241.661,481.432 215.5,478C 209.503,485.979 208.17,494.646 211.5,504C 210.974,506.963 209.641,509.463 207.5,511.5C 204.5,511.5 201.5,511.5 198.5,511.5C 194.916,506.684 193.249,501.184 193.5,495C 193.964,489.036 194.797,483.203 196,477.5C 189.53,484.902 186.197,493.568 186,503.5C 178.64,509.693 173.473,508.193 170.5,499C 171.201,487.895 174.868,477.895 181.5,469C 179.833,468.167 178.167,467.333 176.5,466.5C 172.71,469.405 169.877,473.072 168,477.5C 167.044,484.196 166.044,490.862 165,497.5C 159.559,501.926 154.892,501.259 151,495.5C 148.624,481.833 151.791,469.667 160.5,459C 148.067,451.401 137.734,441.568 129.5,429.5C 79.4703,417.599 57.3036,385.933 63,334.5C 65.7985,313.772 71.6318,293.938 80.5,275C 60.8255,247.659 52.8255,217.326 56.5,184C 58.0249,182.991 59.6916,182.491 61.5,182.5C 64.7872,183.055 67.2872,184.722 69,187.5C 69.8378,197.886 71.0044,208.219 72.5,218.5C 82.7414,262.248 109.075,291.748 151.5,307C 184.802,318.924 219.135,324.091 254.5,322.5C 291.547,323.603 327.547,318.103 362.5,306C 393.282,294.212 416.115,273.712 431,244.5C 434.423,236.403 436.923,228.069 438.5,219.5C 444.764,189.189 443.264,159.189 434,129.5C 426.529,105.23 415.863,82.5634 402,61.5C 400.517,58.2976 400.183,54.9643 401,51.5C 409.8,43.0392 417.467,33.7059 424,23.5C 424.688,22.6683 424.521,22.0016 423.5,21.5C 356.521,43.1224 287.854,51.6224 217.5,47C 183.627,44.9331 150.294,39.5998 117.5,31C 107.012,28.3391 96.8456,24.8391 87,20.5C 92.5894,31.7987 100.256,41.7987 110,50.5C 112.086,54.6665 111.753,58.6665 109,62.5C 88.85,92.9446 76.1833,126.278 71,162.5C 69.0049,165.675 66.1715,167.342 62.5,167.5C 58.0672,166.731 55.7339,164.064 55.5,159.5C 61.0369,122.611 73.7035,88.444 93.5,57C 81.6436,44.1415 72.1436,29.6415 65,13.5C 62.3739,8.00101 63.2073,3.33434 67.5,-0.5 Z"/></g>
<g><path style="opacity:1" fill="#db8657" d="M 438.5,219.5 C 425.021,247.145 404.355,267.645 376.5,281C 349.088,293.02 320.421,300.02 290.5,302C 239.382,307.523 189.715,301.523 141.5,284C 110.408,270.402 87.4084,248.568 72.5,218.5C 71.0044,208.219 69.8378,197.886 69,187.5C 67.2872,184.722 64.7872,183.055 61.5,182.5C 62.0534,177.518 62.3867,172.518 62.5,167.5C 66.1715,167.342 69.0049,165.675 71,162.5C 76.1833,126.278 88.85,92.9446 109,62.5C 111.753,58.6665 112.086,54.6665 110,50.5C 100.256,41.7987 92.5894,31.7987 87,20.5C 96.8456,24.8391 107.012,28.3391 117.5,31C 150.294,39.5998 183.627,44.9331 217.5,47C 287.854,51.6224 356.521,43.1224 423.5,21.5C 424.521,22.0016 424.688,22.6683 424,23.5C 417.467,33.7059 409.8,43.0392 401,51.5C 400.183,54.9643 400.517,58.2976 402,61.5C 415.863,82.5634 426.529,105.23 434,129.5C 443.264,159.189 444.764,189.189 438.5,219.5 Z"/></g>
<g><path style="opacity:1" fill="#050302" d="M 178.5,74.5 C 209.416,72.7984 235.083,83.465 255.5,106.5C 285.026,75.0802 320.026,66.9135 360.5,82C 385.058,94.901 401.225,114.734 409,141.5C 418.726,176.641 415.726,210.641 400,243.5C 381.588,271.619 355.421,284.119 321.5,281C 305.394,278.278 291.06,271.778 278.5,261.5C 263.241,278.78 248.074,278.78 233,261.5C 202.969,284.456 171.136,287.29 137.5,270C 117.847,256.634 105.68,238.134 101,214.5C 93.1895,179.844 97.5229,146.844 114,115.5C 129.154,91.8403 150.654,78.1736 178.5,74.5 Z"/></g>
<g><path style="opacity:1" fill="#fee8c7" d="M 396.5,209.5 C 378.766,237.695 353.099,249.862 319.5,246C 307.67,243.582 297.003,238.749 287.5,231.5C 286.062,204.089 271.729,192.922 244.5,198C 230.034,204.422 223.367,215.589 224.5,231.5C 202.398,247.374 178.398,250.874 152.5,242C 135.765,235.094 123.431,223.594 115.5,207.5C 107.959,174.437 113.459,143.77 132,115.5C 153.373,91.6122 179.54,84.1122 210.5,93C 227.732,99.9003 241.732,110.9 252.5,126C 255.303,126.755 257.97,126.422 260.5,125C 287.491,88.4191 321.491,80.0857 362.5,100C 382.93,115.339 394.764,135.839 398,161.5C 400.274,177.599 399.774,193.599 396.5,209.5 Z"/></g>
<g><path style="opacity:1" fill="#030302" d="M 172.5,148.5 C 184.831,147.418 192.997,152.751 197,164.5C 200.244,176.51 198.244,187.51 191,197.5C 180.3,206.257 170.634,205.257 162,194.5C 153.4,179.175 154.9,165.008 166.5,152C 168.727,151.059 170.727,149.892 172.5,148.5 Z"/></g>
<g><path style="opacity:1" fill="#030303" d="M 329.5,148.5 C 338.218,147.378 345.052,150.378 350,157.5C 358.69,173.065 356.857,187.232 344.5,200C 333.627,206.198 324.794,204.032 318,193.5C 312.878,183.127 312.212,172.46 316,161.5C 319.101,155.563 323.601,151.23 329.5,148.5 Z"/></g>
<g><path style="opacity:1" fill="#fbd9a5" d="M 115.5,207.5 C 123.431,223.594 135.765,235.094 152.5,242C 178.398,250.874 202.398,247.374 224.5,231.5C 225.016,236.873 225.516,242.207 226,247.5C 208.51,263.649 188.01,269.482 164.5,265C 135.853,256.507 119.519,237.34 115.5,207.5 Z"/></g>
<g><path style="opacity:1" fill="#fba511" d="M 272.5,229.5 C 261.5,244.167 250.5,244.167 239.5,229.5C 240.007,215.387 247.34,209.553 261.5,212C 269.317,215.117 272.983,220.951 272.5,229.5 Z"/></g>
<g><path style="opacity:1" fill="#fbd9a5" d="M 396.5,209.5 C 387.861,249.32 363.195,268.153 322.5,266C 308.598,263.133 296.431,256.966 286,247.5C 286.002,242.144 286.502,236.811 287.5,231.5C 297.003,238.749 307.67,243.582 319.5,246C 353.099,249.862 378.766,237.695 396.5,209.5 Z"/></g>
<g><path style="opacity:1" fill="#d67d49" d="M 72.5,218.5 C 87.4084,248.568 110.408,270.402 141.5,284C 189.715,301.523 239.382,307.523 290.5,302C 320.421,300.02 349.088,293.02 376.5,281C 404.355,267.645 425.021,247.145 438.5,219.5C 436.923,228.069 434.423,236.403 431,244.5C 416.115,273.712 393.282,294.212 362.5,306C 327.547,318.103 291.547,323.603 254.5,322.5C 219.135,324.091 184.802,318.924 151.5,307C 109.075,291.748 82.7414,262.248 72.5,218.5 Z"/></g>
<g><path style="opacity:1" fill="#fa9700" d="M 239.5,229.5 C 250.5,244.167 261.5,244.167 272.5,229.5C 272.48,240.741 268.48,250.241 260.5,258C 256.586,260.18 252.919,259.846 249.5,257C 242.733,249.11 239.4,239.944 239.5,229.5 Z"/></g>
<g><path style="opacity:1" fill="#da8657" d="M 119.5,352.5 C 120.037,358.135 119.37,363.468 117.5,368.5C 115.549,369.282 114.049,370.616 113,372.5C 112.737,376.835 112.903,381.168 113.5,385.5C 113.719,386.675 113.386,387.675 112.5,388.5C 98.0033,382.321 86.6699,372.655 78.5,359.5C 76.6175,334.245 81.2842,310.245 92.5,287.5C 101.395,295.094 110.395,302.427 119.5,309.5C 115.644,322.599 113.811,335.932 114,349.5C 115.488,351.16 117.321,352.16 119.5,352.5 Z"/></g>
<g><path style="opacity:0.998" fill="#da8657" d="M 436.5,312.5 C 437.809,317.074 438.809,321.74 439.5,326.5C 437.265,327.228 435.432,328.561 434,330.5C 434.584,340.514 434.418,350.514 433.5,360.5C 426.65,369.848 418.317,377.681 408.5,384C 405.029,386.072 401.362,387.572 397.5,388.5C 401.725,361.491 399.725,334.991 391.5,309C 401.22,302.621 410.387,295.455 419,287.5C 422.58,294.569 425.58,301.903 428,309.5C 430.305,311.93 433.138,312.93 436.5,312.5 Z"/></g>
<g><path style="opacity:1" fill="#ac5d2d" d="M 382.5,387.5 C 376.515,396.344 369.848,404.844 362.5,413C 339.457,431.361 313.123,441.694 283.5,444C 262.139,444.89 240.806,444.557 219.5,443C 189.696,439.512 164.196,427.345 143,406.5C 137.848,399.863 133.348,392.863 129.5,385.5C 128.741,380.528 127.574,375.528 126,370.5C 123.435,368.821 120.602,368.154 117.5,368.5C 119.37,363.468 120.037,358.135 119.5,352.5C 123.994,352.837 126.828,350.837 128,346.5C 128.591,335.881 130.591,325.547 134,315.5C 171.756,331.641 211.256,338.974 252.5,337.5C 287.906,338.561 322.573,334.061 356.5,324C 363.7,321.656 370.7,318.822 377.5,315.5C 384.738,339.075 386.405,363.075 382.5,387.5 Z"/></g>
<g><path style="opacity:1" fill="#d47c48" d="M 78.5,359.5 C 86.6699,372.655 98.0033,382.321 112.5,388.5C 113.386,387.675 113.719,386.675 113.5,385.5C 115.186,393.559 117.52,401.559 120.5,409.5C 95.5072,402.477 81.5072,385.81 78.5,359.5 Z"/></g>
<g><path style="opacity:1" fill="#d37c48" d="M 433.5,360.5 C 429.977,386.479 415.977,402.645 391.5,409C 394.021,402.276 396.021,395.443 397.5,388.5C 401.362,387.572 405.029,386.072 408.5,384C 418.317,377.681 426.65,369.848 433.5,360.5 Z"/></g>
<g><path style="opacity:1" fill="#9e5427" d="M 129.5,385.5 C 133.348,392.863 137.848,399.863 143,406.5C 164.196,427.345 189.696,439.512 219.5,443C 240.806,444.557 262.139,444.89 283.5,444C 313.123,441.694 339.457,431.361 362.5,413C 369.848,404.844 376.515,396.344 382.5,387.5C 375.554,419.949 356.554,442.116 325.5,454C 295.22,463.492 264.22,466.826 232.5,464C 203.247,462.691 177.247,453.025 154.5,435C 140.737,421.308 132.404,404.808 129.5,385.5 Z"/></g>
</svg>
