<?xml version="1.0" encoding="UTF-8"?>
<!DOCTYPE svg PUBLIC "-//W3C//DTD SVG 1.1//EN" "http://www.w3.org/Graphics/SVG/1.1/DTD/svg11.dtd">
<svg xmlns="http://www.w3.org/2000/svg" version="1.1" width="512px" height="512px" style="shape-rendering:geometricPrecision; text-rendering:geometricPrecision; image-rendering:optimizeQuality; fill-rule:evenodd; clip-rule:evenodd" xmlns:xlink="http://www.w3.org/1999/xlink">
<g><path style="opacity:0.997" fill="#14a7ff" d="M 232.5,-0.5 C 247.833,-0.5 263.167,-0.5 278.5,-0.5C 368.144,10.3879 435.644,54.7213 481,132.5C 497.695,163.971 507.861,197.304 511.5,232.5C 511.5,247.833 511.5,263.167 511.5,278.5C 500.612,368.144 456.279,435.644 378.5,481C 347.029,497.695 313.696,507.861 278.5,511.5C 263.167,511.5 247.833,511.5 232.5,511.5C 142.856,500.612 75.3562,456.279 30,378.5C 13.3053,347.029 3.1386,313.696 -0.5,278.5C -0.5,263.167 -0.5,247.833 -0.5,232.5C 10.3875,142.857 54.7208,75.3573 132.5,30C 163.971,13.3053 197.304,3.1386 232.5,-0.5 Z"/></g>
<g><path style="opacity:1" fill="#fefeff" d="M 362.5,112.5 C 370.174,112.334 377.841,112.5 385.5,113C 369.747,147.066 348.914,177.566 323,204.5C 322.316,205.784 322.483,206.951 323.5,208C 330.134,212.306 336.467,216.973 342.5,222C 318.735,283.554 274.069,318.221 208.5,326C 192.623,332.873 180.123,343.706 171,358.5C 163.549,371.69 158.382,385.69 155.5,400.5C 145.5,400.5 135.5,400.5 125.5,400.5C 131.568,351.226 143.735,303.559 162,257.5C 199.34,168.319 266.173,119.986 362.5,112.5 Z"/></g>
</svg>
